<svg id="instagram" xmlns="http://www.w3.org/2000/svg" xmlns:xlink="http://www.w3.org/1999/xlink" width="50" height="50" viewBox="0 0 50 50">
  <defs>
    <filter id="instagram-brands" x="5.5" y="8.001" width="38" height="39.497" filterUnits="userSpaceOnUse">
      <feOffset dy="3" input="SourceAlpha"/>
      <feGaussianBlur stdDeviation="0.5" result="blur"/>
      <feFlood flood-opacity="0.161"/>
      <feComposite operator="in" in2="blur"/>
      <feComposite in="SourceGraphic"/>
    </filter>
  </defs>
  <path id="Rectangle_21" data-name="Rectangle 21" d="M5,0H45a5,5,0,0,1,5,5V45a5,5,0,0,1-5,5H5a5,5,0,0,1-5-5V5A5,5,0,0,1,5,0Z" fill="#130e0e"/>
  <g transform="matrix(1, 0, 0, 1, 0, 0)" filter="url(#instagram-brands)">
    <path id="instagram-brands-2" data-name="instagram-brands" d="M17.429,40.351a8.958,8.958,0,1,0,6.348,2.624,8.974,8.974,0,0,0-6.348-2.624Zm0,14.807a5.834,5.834,0,1,1,5.833-5.834,5.834,5.834,0,0,1-5.833,5.834ZM28.86,39.984a2.088,2.088,0,1,1-.612-1.481A2.093,2.093,0,0,1,28.86,39.984Zm5.94,2.125c-.133-2.8-.773-5.287-2.827-7.333s-4.529-2.687-7.332-2.827c-2.889-.164-11.548-.164-14.437,0-2.8.133-5.278.773-7.332,2.819S.189,39.3.048,42.1c-.164,2.89-.164,11.551,0,14.44.133,2.8.773,5.287,2.827,7.333S7.4,66.561,10.206,66.7c2.889.164,11.548.164,14.437,0,2.8-.133,5.286-.773,7.332-2.827s2.686-4.53,2.827-7.333C34.966,53.652,34.966,45,34.8,42.109ZM31.07,59.642a5.906,5.906,0,0,1-3.326,3.327c-2.3.914-7.769.7-10.314.7s-8.019.2-10.314-.7A5.906,5.906,0,0,1,3.79,59.642c-.914-2.3-.7-7.771-.7-10.317s-.2-8.021.7-10.317a5.906,5.906,0,0,1,3.326-3.327c2.3-.914,7.769-.7,10.314-.7s8.019-.2,10.314.7a5.906,5.906,0,0,1,3.326,3.327c.914,2.3.7,7.771.7,10.317S31.983,57.346,31.07,59.642Z" transform="translate(7.07 -23.82)" fill="#eb0f00"/>
  </g>
</svg>
