<svg xmlns="http://www.w3.org/2000/svg" xmlns:xlink="http://www.w3.org/1999/xlink" width="72" height="76" viewBox="0 0 72 76">
  <defs>
    <filter id="Ellipse_2" x="0" y="4" width="72" height="72" filterUnits="userSpaceOnUse">
      <feOffset dy="3" input="SourceAlpha"/>
      <feGaussianBlur stdDeviation="3" result="blur"/>
      <feFlood flood-color="#eb0f00" flood-opacity="0.38"/>
      <feComposite operator="in" in2="blur"/>
      <feComposite in="SourceGraphic"/>
    </filter>
  </defs>
  <g id="Component_6_1" data-name="Component 6 – 1" transform="translate(9)">
    <g id="shopping-cart" transform="translate(0 10)">
      <g transform="matrix(1, 0, 0, 1, -9, -10)" filter="url(#Ellipse_2)">
        <circle id="Ellipse_2-2" data-name="Ellipse 2" cx="27" cy="27" r="27" transform="translate(9 10)" fill="#130e0e"/>
      </g>
      <g id="shopping-cart-solid" transform="translate(11.844 13.453)">
        <path id="shopping-cart-solid-2" data-name="shopping-cart-solid" d="M26.544,15.145,28.92,4.69a1.206,1.206,0,0,0-1.176-1.474H8L7.541.965A1.206,1.206,0,0,0,6.359,0H1.206A1.206,1.206,0,0,0,0,1.206v.8A1.206,1.206,0,0,0,1.206,3.217H4.719L8.249,20.478a2.815,2.815,0,1,0,3.37.43H22.156a2.814,2.814,0,1,0,3.2-.523l.277-1.22a1.206,1.206,0,0,0-1.176-1.474H10.963l-.329-1.608H25.368A1.206,1.206,0,0,0,26.544,15.145Z" fill="#eb0f00"/>
      </g>
    </g>
    <g id="Group_16" data-name="Group 16" transform="translate(-1700 -101)">
      <circle id="Ellipse_3" data-name="Ellipse 3" cx="11" cy="11" r="11" transform="translate(1738 103)" fill="#eb0f00"/>
      <text id="_0" data-name="0" transform="translate(1743 121)" fill="#130e0e" font-size="20" font-family="Nunito-Regular, Nunito"><tspan x="0" y="0">0</tspan></text>
    </g>
  </g>
</svg>
